<svg xmlns="http://www.w3.org/2000/svg" width="1993.411" height="233.377" viewBox="0 0 1993.411 233.377">
  <g id="Wave" transform="translate(666 -801)">
    <path id="wave-2" data-name="wave" d="M0,247.647l32.224-26.273c32.224-26.273,96.671-78.818,161.118-109.441C257.788,80.98,322.235,72.77,386.682,76.875s128.894,22.167,193.341,39.409,128.894,35.3,193.341,39.409,128.894-4.105,193.341-13.136S1095.6,125.315,1160.047,107.5c64.447-17.488,128.894-43.76,193.341-30.624s128.894,65.681,193.341,61.33c64.447-4.68,128.894-65.435,193.341-74.466s128.894,35.3,161.118,56.9l32.223,21.921V273.919H0Z" transform="translate(-606 738.458)" fill="#fff" opacity="0.67"/>
    <path id="wave-3" data-name="wave" d="M0,247.647l32.224-26.273c32.224-26.273,96.671-78.818,161.118-109.441C257.788,80.98,322.235,72.77,386.682,76.875s128.894,22.167,193.341,39.409,128.894,35.3,193.341,39.409,128.894-4.105,193.341-13.136S1095.6,125.315,1160.047,107.5c64.447-17.488,128.894-43.76,193.341-30.624s128.894,65.681,193.341,61.33c64.447-4.68,128.894-65.435,193.341-74.466s128.894,35.3,161.118,56.9l32.223,21.921V273.919H0Z" transform="translate(-666 760.458)" fill="#fff"/>
  </g>
</svg>
