<svg id="hero" xmlns="http://www.w3.org/2000/svg" viewBox="0 0 1058.496 860.887">
  <path id="Path_2" data-name="Path 2" d="M589.14,789.532C343.286,770.814,50.095,580.239,65.022,384.01S363.907,5.107,609.761,23.824,997.135,409.261,982.209,605.49,834.992,808.249,589.14,789.532Z" transform="translate(-64.474 -22.5)" fill="#f2f2f2"/>
  <g id="shadow">
    <ellipse id="Ellipse_1" data-name="Ellipse 1" cx="513.211" cy="31.455" rx="513.211" ry="31.455" transform="translate(32.074 735.639)" fill="#3f3d56"/>
    <path id="Path_83" data-name="Path 83" d="M437.142,0C678.569,0,874.284,9.313,874.284,20.8c0,10.282-362.671,20.5-362.671,20.5s-49.12.3-74.471.3C195.715,41.6,0,32.289,0,20.8S195.715,0,437.142,0Z" transform="translate(108.143 745.786)" opacity="0.1"/>
  </g>
  <ellipse id="Ellipse_4" data-name="Ellipse 4" cx="183.318" cy="12.413" rx="183.318" ry="12.413" transform="translate(3.936 836.06)" opacity="0.1"/>
  <path id="Path_23" data-name="Path 23" d="M468.721,729.44H414.83a2.284,2.284,0,0,1,0-4.569h53.891a2.284,2.284,0,0,1,0,4.569Z" transform="translate(-59.514 -12.193)" fill="#f2f2f2"/>
  <g id="terminal">
    <rect id="Rectangle_6" data-name="Rectangle 6" width="762.717" height="598.658" transform="translate(171.026 164.377)" fill="#3f3d56"/>
    <path id="Path_3" data-name="Path 3" d="M603.217,265.2H415.056a2.284,2.284,0,0,1,0-4.569H603.217a2.284,2.284,0,0,1,0,4.569Z" transform="translate(-59.511 -19.005)" fill="#f2f2f2"/>
    <path id="Path_4" data-name="Path 4" d="M807.81,289.961H511.867a2.284,2.284,0,0,1,0-4.569H807.81a2.284,2.284,0,0,1,0,4.569Z" transform="translate(-58.131 -18.642)" fill="#f2f2f2"/>
    <path id="Path_5" data-name="Path 5" d="M604.118,314.727H415.956a2.284,2.284,0,0,1,0-4.569H604.118a2.284,2.284,0,0,1,0,4.569Z" transform="translate(-59.498 -18.279)" fill="#f2f2f2"/>
    <path id="Path_6" data-name="Path 6" d="M806.3,315.177H618.134a2.284,2.284,0,0,1,0-4.569H806.3a2.284,2.284,0,0,1,0,4.569Z" transform="translate(-56.617 -18.272)" fill="#f2f2f2"/>
    <path id="Path_7" data-name="Path 7" d="M604.568,339.492H416.406a2.284,2.284,0,0,1,0-4.569H604.568a2.284,2.284,0,0,1,0,4.569Z" transform="translate(-59.491 -17.915)" fill="#f2f2f2"/>
    <path id="Path_8" data-name="Path 8" d="M605.018,364.258H416.857a2.284,2.284,0,0,1,0-4.569H605.018a2.284,2.284,0,0,1,0,4.569Z" transform="translate(-59.485 -17.552)" fill="#f2f2f2"/>
    <path id="Path_9" data-name="Path 9" d="M687.335,265.645H633.444a2.284,2.284,0,0,1,0-4.569h53.891a2.284,2.284,0,0,1,0,4.569Z" transform="translate(-56.398 -18.999)" fill="#f2f2f2"/>
    <path id="Path_10" data-name="Path 10" d="M687.335,339.492H633.444a2.284,2.284,0,0,1,0-4.569h53.891a2.284,2.284,0,0,1,0,4.569Z" transform="translate(-56.398 -17.915)" fill="#f2f2f2"/>
    <path id="Path_11" data-name="Path 11" d="M687.335,363.808H633.444a2.284,2.284,0,0,1,0-4.569h53.891a2.284,2.284,0,0,1,0,4.569Z" transform="translate(-56.398 -17.558)" fill="#f2f2f2"/>
    <path id="Path_12" data-name="Path 12" d="M776.492,363.808H722.6a2.284,2.284,0,0,1,0-4.569h53.891a2.284,2.284,0,0,1,0,4.569Z" transform="translate(-55.128 -17.558)" fill="#f2f2f2"/>
    <path id="Path_13" data-name="Path 13" d="M468.5,289.961H414.605a2.284,2.284,0,0,1,0-4.569H468.5a2.284,2.284,0,0,1,0,4.569Z" transform="translate(-59.517 -18.642)" fill="#f2f2f2"/>
    <path id="Path_14" data-name="Path 14" d="M603.442,629.927H415.281a2.284,2.284,0,0,1,0-4.569H603.442a2.284,2.284,0,0,1,0,4.569Z" transform="translate(-59.507 -13.653)" fill="#f2f2f2"/>
    <path id="Path_15" data-name="Path 15" d="M602.542,679.458H414.38a2.284,2.284,0,0,1,0-4.569H602.542a2.284,2.284,0,0,1,0,4.569Z" transform="translate(-59.52 -12.926)" fill="#f2f2f2"/>
    <path id="Path_16" data-name="Path 16" d="M602.992,704.224H414.83a2.285,2.285,0,0,1,0-4.569H602.992a2.284,2.284,0,0,1,0,4.569Z" transform="translate(-59.514 -12.563)" fill="#f2f2f2"/>
    <path id="Path_17" data-name="Path 17" d="M680.355,679.908h-53.89a2.284,2.284,0,0,1,0-4.569h53.891a2.284,2.284,0,0,1,0,4.569Z" transform="translate(-56.498 -12.92)" fill="#f2f2f2"/>
    <path id="Path_18" data-name="Path 18" d="M680.355,704.224h-53.89a2.285,2.285,0,0,1,0-4.569h53.891a2.284,2.284,0,0,1,0,4.569Z" transform="translate(-56.498 -12.563)" fill="#f2f2f2"/>
    <path id="Path_19" data-name="Path 19" d="M769.512,679.908H715.621a2.284,2.284,0,0,1,0-4.569h53.891a2.284,2.284,0,0,1,0,4.569Z" transform="translate(-55.227 -12.92)" fill="#f2f2f2"/>
    <path id="Path_20" data-name="Path 20" d="M808.035,654.692H512.092a2.285,2.285,0,0,1,0-4.569H808.035a2.284,2.284,0,0,1,0,4.569Z" transform="translate(-58.128 -13.29)" fill="#f2f2f2"/>
    <path id="Path_21" data-name="Path 21" d="M468.721,654.692H414.83a2.285,2.285,0,0,1,0-4.569h53.891a2.284,2.284,0,0,1,0,4.569Z" transform="translate(-59.514 -13.29)" fill="#f2f2f2"/>
    <path id="Path_22" data-name="Path 22" d="M808.035,729.44H512.092a2.284,2.284,0,0,1,0-4.569H808.035a2.284,2.284,0,0,1,0,4.569Z" transform="translate(-58.128 -12.193)" fill="#f2f2f2"/>
    <path id="Path_24" data-name="Path 24" d="M520.087,401.13l-73.073,72.189,73.073,72.189,16.441-16.448-55.26-55.285,55.717-55.741Z" transform="translate(-21.594 5.887)" fill="#ff63ce"/>
    <path id="Path_25" data-name="Path 25" d="M625.564,401.13l73.073,72.189-73.073,72.189L609.123,529.06l55.261-55.285-55.718-55.741Z" transform="translate(-19.29 5.887)" fill="#ff63ce"/>
    <ellipse id="Ellipse_5" data-name="Ellipse 5" cx="9.128" cy="9.132" rx="9.128" ry="9.132" transform="translate(182.183 170.465)" fill="#ff63ce"/>
    <ellipse id="Ellipse_6" data-name="Ellipse 6" cx="9.128" cy="9.132" rx="9.128" ry="9.132" transform="translate(206.525 170.465)" fill="#ff63ce"/>
    <ellipse id="Ellipse_7" data-name="Ellipse 7" cx="9.128" cy="9.132" rx="9.128" ry="9.132" transform="translate(230.867 170.465)" fill="#ff63ce"/>
    <rect id="Rectangle_7" data-name="Rectangle 7" width="762.717" height="3.044" transform="translate(171.026 194.818)" opacity="0.1"/>
  </g>
  <path id="Path_28" data-name="Path 28" d="M159.939,773.677a43.734,43.734,0,0,1-8.295,3.554c-5.151,1.408-10.657.891-15.86,2.093-2.13.492-4.449,1.521-5.126,3.6-.5,1.525.044,3.173.561,4.691,5.749,16.864,9.215,34.769,18.383,50.044A75.73,75.73,0,0,0,163.8,854.9c2.084,1.88,4.447,3.718,7.237,4.013a7.354,7.354,0,0,0,7.476-10.331c-.822-1.827-2.35-3.243-3.336-4.988a19.039,19.039,0,0,1-1.845-7.093c-.906-7.213-1.778-14.751.72-21.577,1.675-4.578,4.749-8.482,7.309-12.63s4.688-8.9,4.118-13.743c-.389-3.3-2-6.328-3.7-9.187s-5.076-10.561-8.5-11.517C169.712,766.851,163.041,772.087,159.939,773.677Z" transform="translate(-63.534 -11.564)" fill="#2f2e41"/>
  <path id="Path_29" data-name="Path 29" d="M252.057,831.29a14.23,14.23,0,0,1-.673,4.815c-1.073,2.834-3.733,4.775-5.108,7.475-1.912,3.755-1.045,8.294.221,12.313.794,2.52,1.836,5.141,3.968,6.7a13.073,13.073,0,0,0,6.039,1.935c18.293,2.533,36.876,1.08,55.336,1.61,3.365.1,6.927.215,9.864-1.43s4.753-5.78,2.755-8.491c-1.794-2.434-5.34-2.411-8.36-2.555a34.388,34.388,0,0,1-21.211-8.741,15.332,15.332,0,0,1-2.975-3.426,21.063,21.063,0,0,1-1.556-3.569,159.127,159.127,0,0,0-9.213-20.414c-.993-1.841-2.117-3.759-3.962-4.745a10.464,10.464,0,0,0-4.3-.939c-4.6-.3-16.515-1.865-20.073,1.714C249.522,816.849,252.13,827.089,252.057,831.29Z" transform="translate(-61.899 -10.925)" fill="#2f2e41"/>
  <path id="Path_30" data-name="Path 30" d="M253.836,423.343c-1.748,4.682-4.713,9.078-9.027,11.6l40.646,8.295a43.093,43.093,0,0,1-.57-18.131,10.456,10.456,0,0,0,.243-4.474c-.764-2.95-4.084-4.37-7.054-5.047-7.418-1.692-13.978-2.6-20.872-5.877C255.095,413.315,255.39,419.182,253.836,423.343Z" transform="translate(-61.904 -16.818)" fill="#fbbebe"/>
  <path id="Path_31" data-name="Path 31" d="M244.991,423.768a31.773,31.773,0,0,1,27.7.724c5.211,2.747,9.526,6.894,13.765,10.985,3.908,3.771,8.076,8.089,8.353,13.514.134,2.628-.686,5.2-1.1,7.8a26.147,26.147,0,0,0,13.976,26.858c3.229,5.381,3.9,11.9,3.945,18.177.188,23.78-7.312,47.853-1.958,71.023,1.257,5.44,3.207,10.709,4.293,16.185,1.407,7.094,1.337,14.388,2.073,21.582a96.7,96.7,0,0,0,5.186,22.826c-1.769,2.814-5.45,3.894-8.765,3.666s-6.415-1.667-9.374-3.182c-14.325-7.333-27.445-17-42.281-23.235-9.816-4.123-20.272-6.692-29.795-11.454s-18.378-12.32-21.29-22.564c-1.259-4.43-1.336-9.1-1.405-13.7-.289-19.394-.558-39,3.661-57.932,3.721-16.7,10.895-32.666,12.459-49.7.509-5.544.52-11.48,3.617-16.106C232.432,432.69,241.883,431,244.991,423.768Z" transform="translate(-62.426 -16.653)" fill="#2f2e41"/>
  <g id="head">
    <ellipse id="Ellipse_8" data-name="Ellipse 8" cx="29.388" cy="29.4" rx="29.388" ry="29.4" transform="translate(189.082 352.848)" fill="#fbbebe"/>
    <path id="Path_32" data-name="Path 32" d="M263.843,400.278c1.732-2.259,5.072-2.568,7.838-1.9s5.317,2.095,8.111,2.637a4.74,4.74,0,0,0,3.8-.533,5.525,5.525,0,0,0,1.639-3.623,69.194,69.194,0,0,0,.68-17.636,5.223,5.223,0,0,1,.161-2.473c.692-1.667,2.8-2.064,4.526-2.6a13.511,13.511,0,0,0,9.141-13.833,5.5,5.5,0,0,0-1.68-3.8c-1.192-.972-2.86-1.031-4.4-1.044q-11.85-.1-23.7.006c-2.924.025-5.995.1-8.529,1.555-1.874,1.078-3.268,2.814-4.95,4.172-4.388,3.542-10.323,4.263-15.661,6.079a15.526,15.526,0,0,0-6.864,4.095c-1.775,2.029-2.629,5.046-1.514,7.5a26.633,26.633,0,0,0,1.914,2.947c3.149,5.037,1.053,11.57,1.523,17.493.587,7.4,11.527,19.392,18.945,21.142C266.8,423.292,259.879,405.133,263.843,400.278Z" transform="translate(-62.088 -17.614)" fill="#2f2e41"/>
  </g>
  <path id="Path_33" data-name="Path 33" d="M247.118,719.929c.756,5.4,1.725,10.818,1.466,16.264-.362,7.6-3.1,14.93-3.609,22.525-.378,5.673.5,11.407-.291,17.038-.5,3.605-1.679,7.081-2.407,10.648a44.046,44.046,0,0,0,7.072,33.753,5.526,5.526,0,0,0,2.052,1.99,5.792,5.792,0,0,0,2.544.336,182.442,182.442,0,0,0,25.529-2.321,2.448,2.448,0,0,0,1.639-.723,2.3,2.3,0,0,0,.356-.968c1.566-8.052-2-16.127-2.913-24.28-.97-8.706,1.118-17.429,3.191-25.94a115.24,115.24,0,0,1,3.517-12.407c1-2.737,2.212-5.4,3.08-8.181a62.386,62.386,0,0,0,2.233-13.4q.9-10.73.958-21.51a90.3,90.3,0,0,0-1.689-20.3c-1.9-8.46-5.805-16.317-9.672-24.079a15.238,15.238,0,0,0-5.7,2.709,127.151,127.151,0,0,1-15.569,8.605c-3.617,1.681-10.672,2.875-12.968,6.378-2.264,3.455-.8,10.5-.63,14.313Q245.755,710.189,247.118,719.929Z" transform="translate(-61.952 -13.022)" fill="#2f2e41"/>
  <path id="Path_34" data-name="Path 34" d="M247.118,719.929c.756,5.4,1.725,10.818,1.466,16.264-.362,7.6-3.1,14.93-3.609,22.525-.378,5.673.5,11.407-.291,17.038-.5,3.605-1.679,7.081-2.407,10.648a44.046,44.046,0,0,0,7.072,33.753,5.526,5.526,0,0,0,2.052,1.99,5.792,5.792,0,0,0,2.544.336,182.442,182.442,0,0,0,25.529-2.321,2.448,2.448,0,0,0,1.639-.723,2.3,2.3,0,0,0,.356-.968c1.566-8.052-2-16.127-2.913-24.28-.97-8.706,1.118-17.429,3.191-25.94a115.24,115.24,0,0,1,3.517-12.407c1-2.737,2.212-5.4,3.08-8.181a62.386,62.386,0,0,0,2.233-13.4q.9-10.73.958-21.51a90.3,90.3,0,0,0-1.689-20.3c-1.9-8.46-5.805-16.317-9.672-24.079a15.238,15.238,0,0,0-5.7,2.709,127.151,127.151,0,0,1-15.569,8.605c-3.617,1.681-10.672,2.875-12.968,6.378-2.264,3.455-.8,10.5-.63,14.313Q245.755,710.189,247.118,719.929Z" transform="translate(-61.952 -13.022)" opacity="0.1"/>
  <path id="Path_35" data-name="Path 35" d="M208.406,605.518c-3.9,10.511,1.834,21.87,6.818,31.914,12.279,24.744,20.805,51.147,29.286,77.437.635,1.969,1.27,4.118.562,6.062a7.938,7.938,0,0,1-2.862,3.4c-5.848,4.443-13.294,6.026-20.259,8.351a91.456,91.456,0,0,0-19.213,9.01c-5.048,3.129-9.776,6.741-14.5,10.347l-15.023,11.479a10.042,10.042,0,0,0-2.511,2.432c-1.449,2.274-.855,5.243-.134,7.842a133.4,133.4,0,0,0,7.355,20.082,7.012,7.012,0,0,0,2.667,3.5c2.345,1.261,5.213-.411,7-2.382s3.339-4.423,5.863-5.269,5.3.178,7.929-.191c4.259-.6,7.086-4.523,10.155-7.535,12.542-12.309,33.481-11.416,47.277-22.3a60.037,60.037,0,0,1,6.32-4.939c2.332-1.379,4.977-2.136,7.4-3.355,7.36-3.708,11.987-11.373,14.466-19.235s3.186-16.162,4.967-24.211c.921-4.161,2.133-8.278,2.543-12.52a67.091,67.091,0,0,0-.257-11.837l-4.978-61.606c-.405-5.016-.811-10.038-1.6-15.008-14.784.529-29.558,1.124-44.351,1.3C231.563,608.416,219.575,609.24,208.406,605.518Z" transform="translate(-62.973 -13.944)" fill="#2f2e41"/>
  <path id="Path_36" data-name="Path 36" d="M202.526,620.07c2.006,3.227,6.887,3.16,10.248,1.391s5.973-4.741,9.342-6.5c4.527-2.357,9.885-2.268,14.987-2.124,8.077.228,16.253.471,24.024,2.686,8.038,2.29,15.863,6.7,24.174,5.82,1.446-.153,3.028-.568,3.815-1.791a5.627,5.627,0,0,0,.628-2.877l.272-7.264a6.561,6.561,0,0,0-.578-3.678,6.168,6.168,0,0,0-2.755-2.11c-11.83-5.729-25.32-6.8-38.455-7.246q-10.015-.343-20.039-.282c-5.671.035-12.478-.786-17.991.73C202.8,598.863,198.772,614.031,202.526,620.07Z" transform="translate(-62.527 -14.085)" fill="#2f2e41"/>
  <path id="Path_37" data-name="Path 37" d="M276.829,432.38c-15.5-.137-29.546-10.373-45.045-10.622a11.674,11.674,0,0,0-5.469.944c-2.16,1.088-3.58,3.193-5.22,4.97-4.583,4.965-11.219,7.615-15.927,12.461-4.414,4.544-6.869,11.313-5.127,17.4s8.32,10.764,14.482,9.3a37.34,37.34,0,0,1,14.542-19.766,73.91,73.91,0,0,1,11.365-5.968c6.966-3.157,14.755-6.375,22.027-4.008a31.07,31.07,0,0,1,7.515,4.1l12.124,8.148C280.684,443.769,279.413,437.516,276.829,432.38Z" transform="translate(-62.55 -16.641)" fill="#ff5858"/>
  <path id="Path_38" data-name="Path 38" d="M212.855,461.266c-2.058,2.569.907,6.291.453,9.551-.3,2.167-2.084,3.821-2.826,5.878-.769,2.131-.361,4.492-.653,6.739a28.917,28.917,0,0,1-1.293,4.8,86.251,86.251,0,0,0-2.725,14.232L203.1,522.733a76.821,76.821,0,0,0-.858,9.211,27.517,27.517,0,0,1-.459,6.886c-.6,2.215-1.931,4.153-2.826,6.266s-1.31,4.67-.1,6.62c-4.048,3.373-5.252,10-2.421,14.444a8.016,8.016,0,0,1,1.248,2.3,5.907,5.907,0,0,1-.549,3.389l-2.743,7.312c-.7,1.872-.924,4.721,1.028,5.149a17.255,17.255,0,0,0-3.7,5.851,6.969,6.969,0,0,0,.986,6.6,8.411,8.411,0,0,1,1.719,2.086,5.555,5.555,0,0,1-.2,3.291,12.085,12.085,0,0,0,1.494,9.471,8.489,8.489,0,0,0,8.538,3.661c5.488-1.238,10.419-3.193,15.952-2.177,11.913,2.187,23.865,4.383,35.4,8.069,13.169,4.206,25.92,10.374,39.684,11.669a3.851,3.851,0,0,0,2.654-.413,3.989,3.989,0,0,0,1.227-2.524l4.254-19.953a205.418,205.418,0,0,0,3.91-22.351c.484-4.851.622-9.73.76-14.6l1.1-38.792a38.773,38.773,0,0,0-2.231-16.864l-6.306-20.139c-3.6-11.493-11.854-21.685-14.794-33.364-1.86-7.392-3.235-15.325-8.223-21.086-7.112-8.214-19.418-9.491-30.188-8.079-4.866.638-9.773,1.739-13.982,4.263-4.867,2.919-8.452,7.517-11.92,12.01C218.69,454.639,215.78,457.615,212.855,461.266Z" transform="translate(-62.667 -16.459)" fill="#ff5858"/>
  <g id="hand">
    <path id="Path_39" data-name="Path 39" d="M237.361,573.687c.887,3.828,2.751,7.357,3.892,11.118,1.911,6.3,1.749,13.085,3.656,19.386.8,2.645,1.961,5.184,2.535,7.887,1.34,6.3-.616,12.821-3.046,18.787s-5.389,11.849-6.178,18.244c-.556,4.5.243,9.589,3.712,12.511,3.6,3.034,8.837,2.829,13.529,2.425a14.209,14.209,0,0,0,4.91-1.023c3.588-1.7,5.1-5.946,5.938-9.827,2.811-13.007,2.008-26.489,1.191-39.772l-2.136-34.737c-.411-6.688-.852-13.514-2.912-19.935-.749-2.336-2.055-7.056-4.188-8.547-2.112-1.477-8.144-1.543-10.76-1.666C235.235,547.962,235.373,565.1,237.361,573.687Z" transform="translate(-62.025 -14.781)" fill="#fbbebe"/>
    <path id="Path_40" data-name="Path 40" d="M251.1,446.934c-2.506-1.313-5.663-.747-8.085.715a24.924,24.924,0,0,0-6.057,5.883c-5.415,6.613-11.147,14.2-10.344,22.71.3,3.191,1.522,6.211,2.35,9.307,3.63,13.576-.384,27.934.076,41.98.266,8.116,2.031,16.1,3.79,24.027.359,1.618.934,3.491,2.5,4.036,1.175.409,2.445-.117,3.608-.559a28.765,28.765,0,0,1,26.334,3.321c2.906-1.551,1.817-6.456,1.165-9.686-1.936-9.6.692-19.5,3.883-28.751s7.009-18.5,7.538-28.273c.6-11.076-3.072-21.887-6.694-32.371-.791-2.288-1.655-4.688-3.488-6.269a13.857,13.857,0,0,0-5.277-2.412C258.546,449.453,254.65,448.8,251.1,446.934Z" transform="translate(-62.165 -16.282)" fill="#2f2e41"/>
  </g>
</svg>
