<svg id="profile" xmlns="http://www.w3.org/2000/svg" width="100%" height="100%" viewBox="0 0 548 393.812">
  <line id="Line_4" data-name="Line 4" x2="88.08" transform="translate(0 393.312)" fill="none" stroke="#3f3d56" stroke-miterlimit="10" stroke-width="1"/>
  <rect id="Rectangle_28" data-name="Rectangle 28" width="391.056" height="264.772" rx="19.398" transform="translate(128.937 67.786)" fill="#f2f2f2"/>
  <rect id="Rectangle_29" data-name="Rectangle 29" width="391.056" height="264.772" rx="19.398" transform="translate(116.998 51.072)" fill="none" stroke="#3f3d56" stroke-miterlimit="10" stroke-width="1"/>
  <line id="Line_5" data-name="Line 5" x2="391.056" transform="translate(116.998 76.456)" fill="none" stroke="#3f3d56" stroke-miterlimit="10" stroke-width="1"/>
  <rect id="Rectangle_30" data-name="Rectangle 30" width="106.652" height="16.449" rx="7.093" transform="translate(350.73 135.969)" fill="#ff63ce" opacity="0.3"/>
  <rect id="Rectangle_31" data-name="Rectangle 31" width="147.508" height="13.265" rx="6.633" transform="translate(330.301 181.601)" fill="#ff63ce" opacity="0.3"/>
  <rect id="Rectangle_32" data-name="Rectangle 32" width="147.508" height="13.265" rx="6.633" transform="translate(330.301 217.682)" fill="#ff63ce" opacity="0.3"/>
  <rect id="Rectangle_33" data-name="Rectangle 33" width="147.508" height="13.265" rx="6.633" transform="translate(330.301 253.763)" fill="#ff63ce" opacity="0.3"/>
  <rect id="Rectangle_34" data-name="Rectangle 34" width="106.652" height="16.449" rx="7.093" transform="translate(356.036 130.663)" fill="none" stroke="#3f3d56" stroke-miterlimit="10" stroke-width="1"/>
  <rect id="Rectangle_35" data-name="Rectangle 35" width="147.508" height="13.265" rx="6.633" transform="translate(335.608 176.295)" fill="none" stroke="#3f3d56" stroke-miterlimit="10" stroke-width="1"/>
  <rect id="Rectangle_36" data-name="Rectangle 36" width="147.508" height="13.265" rx="6.633" transform="translate(335.608 212.376)" fill="none" stroke="#3f3d56" stroke-miterlimit="10" stroke-width="1"/>
  <rect id="Rectangle_37" data-name="Rectangle 37" width="147.508" height="13.265" rx="6.633" transform="translate(335.608 248.457)" fill="none" stroke="#3f3d56" stroke-miterlimit="10" stroke-width="1"/>
  <circle id="Ellipse_20" data-name="Ellipse 20" cx="7.959" cy="7.959" r="7.959" transform="translate(138.753 59.031)" fill="#ff63ce" opacity="0.3"/>
  <circle id="Ellipse_21" data-name="Ellipse 21" cx="7.959" cy="7.959" r="7.959" transform="translate(161.039 59.031)" fill="#ff63ce" opacity="0.3"/>
  <circle id="Ellipse_22" data-name="Ellipse 22" cx="7.959" cy="7.959" r="7.959" transform="translate(183.324 59.031)" fill="#ff63ce" opacity="0.3"/>
  <circle id="Ellipse_23" data-name="Ellipse 23" cx="7.959" cy="7.959" r="7.959" transform="translate(141.937 55.848)" fill="none" stroke="#3f3d56" stroke-miterlimit="10" stroke-width="1"/>
  <circle id="Ellipse_24" data-name="Ellipse 24" cx="7.959" cy="7.959" r="7.959" transform="translate(164.222 55.848)" fill="none" stroke="#3f3d56" stroke-miterlimit="10" stroke-width="1"/>
  <circle id="Ellipse_25" data-name="Ellipse 25" cx="7.959" cy="7.959" r="7.959" transform="translate(186.508 55.848)" fill="none" stroke="#3f3d56" stroke-miterlimit="10" stroke-width="1"/>
  <path id="Path_68" data-name="Path 68" d="M519.856,606.744a79.114,79.114,0,0,1-1.238-20.354s-6.738-29.6-12.039-32.362l0,0c-.081.1-2.654,3.477-2.98,13.915a42.914,42.914,0,0,1-4.085,17.561s1.215,13.216.52,21.239Z" transform="translate(-279.305 -302.043)" fill="#ff63ce"/>
  <path id="Path_69" data-name="Path 69" d="M510.895,298.379H388.614A12.613,12.613,0,0,0,376,310.993V474.13a12.613,12.613,0,0,0,12.613,12.613h42.9c-1.433-5.942-3.214-15.223-1.41-21.676v0c.084-.3.174-.6.274-.886a33.692,33.692,0,0,0,1.216-12.922,26.854,26.854,0,0,0,0-11.266c-1.325-6.185-2.253-12.26-2.253-12.26s-.731-8.173-.093-13.182c.014-.11.031-.214.046-.321l-.351-.081s1.878-8.5,2.54-13.916c.156-1.278.362-2.9.585-4.624a11.109,11.109,0,0,1-1.8-.457c-5.964-2.1-7.842-21.1-7.842-21.1v-6.019s-1.988-9.222,4.97-13.309a80.923,80.923,0,0,1,9.565-5.087c.051-.036.1-.07.153-.11a5.869,5.869,0,0,0,1.746-2.246q.014-.227.007-.452c-.113-2.158-1.615-4.12-3.041-5.833l-3.647-4.381a4.283,4.283,0,0,1-.939-1.52,3.5,3.5,0,0,1-.1-.957q0-.179,0-.357.03-1.633.089-3.266c.034-.951.274-2.151,1.2-2.346.484-.1,1.125.076,1.382-.348a.831.831,0,0,0,.062-.563c0,.014,0,.029-.008.043,0-.018-.006-.036-.009-.053a11.906,11.906,0,0,1-.345-2.327,3.1,3.1,0,0,1,.15-1.045c.54-1.579,2.4-2.226,4.039-2.524s3.484-.554,4.515-1.866a14.3,14.3,0,0,1,.9-1.26,3.517,3.517,0,0,1,1.68-.847,9.285,9.285,0,0,1,6.105.542,5.38,5.38,0,0,0,2.463.8c.9-.057,1.678-.694,2.571-.849a3.657,3.657,0,0,1,3.533,2.111,5.228,5.228,0,0,1,.654,2.665,3.668,3.668,0,0,1-.936,2.516c-.621.659-1.547,1.111-1.805,1.979-.105.353-.081.734-.173,1.09-.012.045-.03.086-.046.129.017.022.036.043.052.065a11.265,11.265,0,0,1-5.482,17.52c0,.112-.009.224-.008.336a4.867,4.867,0,0,0,1.507,3.749l9.841,4.036s5.925-.718,8.063,8.123a15.293,15.293,0,0,1,.366,4.488,13.387,13.387,0,0,0,1.622,6.717c2.43,4.86,1.878,16.015-3.093,17.119-4.708,1.046-6.539.607-6.719.557l-.011.2c.078,2.093.823,20.147,3.527,22.331.748.6.605,1.012-.009,1.287l0,0s0,.116.016.325c.081,1.32.5,6.349,2.309,9.21,2.1,3.313,1.879,22.422,1.879,22.422l1.435,11.266s-.883,6.958,0,8.173c.5.689,1.109,11.357,1.541,20.465h36.893a12.613,12.613,0,0,0,12.613-12.613V310.992a12.613,12.613,0,0,0-12.614-12.614Z" transform="translate(-221.329 -182.042)" fill="#ff63ce"/>
  <rect id="Rectangle_38" data-name="Rectangle 38" width="147.508" height="188.365" rx="23.772" transform="translate(141.937 102.01)" fill="none" stroke="#3f3d56" stroke-miterlimit="10" stroke-width="1"/>
  <path id="Path_70" data-name="Path 70" d="M179.777,400.214s-4.947-1.463-6.009.129,1.447,13.131,1.447,13.131l10.9.663-3.8-9.607Z" transform="translate(-126.279 -229.555)" fill="#2f2e41"/>
  <path id="Path_71" data-name="Path 71" d="M106.081,579.347s9.92,21.777,2.28,21.093-10.6-21.093-10.6-21.093Z" transform="translate(-90.723 -313.927)" fill="#a0616a"/>
  <path id="Path_72" data-name="Path 72" d="M234.565,573.288s-4.352,23.531,2.895,21.018,5.181-23.033,5.181-23.033Z" transform="translate(-154.331 -310.138)" fill="#a0616a"/>
  <path id="Path_73" data-name="Path 73" d="M162.384,386.936s-.114,10.946,4.1,11.516-2.394,6.385-2.394,6.385l-7.525,1.482-10.832-.8-4.789-6.157s8.437-3.991,4.789-16.418Z" transform="translate(-110.997 -221.738)" fill="#a0616a"/>
  <path id="Path_74" data-name="Path 74" d="M162.384,386.936s-.114,10.946,4.1,11.516-2.394,6.385-2.394,6.385l-7.525,1.482-10.832-.8-4.789-6.157s8.437-3.991,4.789-16.418Z" transform="translate(-110.997 -221.738)" opacity="0.1"/>
  <path id="Path_75" data-name="Path 75" d="M174.571,564.932s5.359,11.516,1.14,47.659c0,0,1.254,12.77.228,15.164s-9.463,34.889-9.463,34.889-10.832,2.394-12.314-4.789c0,0,1.482-10.262,1.368-11.858s2.394-19.041,2.394-19.041l-5.131-33.749-3.877,30.443s0,8.779-1.254,10.718,0,40.932,0,40.932,3.535,5.929-1.824,6.043-10.148-.114-10.6-3.877-.684-7.525-1.824-9.805-2.622-28.39-2.28-37.512-7.525-55.983-5.017-60.885S174.571,564.932,174.571,564.932Z" transform="translate(-103.801 -307.152)" fill="#2f2e41"/>
  <circle id="Ellipse_26" data-name="Ellipse 26" cx="13.682" cy="13.682" r="13.682" transform="translate(31.89 141.939)" fill="#a0616a"/>
  <path id="Path_76" data-name="Path 76" d="M138.348,410.888s8.323,6.157,20.409,1.254c0,0,3.991-1.938,3.649-4.9s8.323,23.83,8.323,23.83l8.779,46.633-.456,19.041s-3.877-1.938-15.962,2.394-31.811-4.9-31.811-4.9l.684-48.913.684-28.5,1.824-6.271S135.384,408.835,138.348,410.888Z" transform="translate(-106.458 -233.033)" fill="#f2f2f2"/>
  <path id="Path_77" data-name="Path 77" d="M182.063,399.884s2.014-.327,3.952,2.751,6.5,5.017,6.5,5.017,11.06.684,12.656,6.613,5.587,14.024,7.525,28.96,5.815,38.766,6.385,40.7-.8,7.867.8,9.691-11.288,1.824-11.288,1.824-1.14-9.349-1.938-9.349-.57,6.271.228,10.832-5.815,0-5.815,0-5.131-20.865-10.033-39.678-7.753-29.188-6.841-33.407,3.421-16.3,1.6-17.445S182.063,399.884,182.063,399.884Z" transform="translate(-130.296 -229.684)" fill="#2f2e41"/>
  <path id="Path_78" data-name="Path 78" d="M122.2,399.874a124.2,124.2,0,0,0-10.5,6.98c-7.525,5.359-12.656,9.463-12.656,9.463s-2.964,2.28-4.789,15.848-5.929,48.685-4.333,53.132,2.166,7.069,1.6,9.691,11.972,2.508,12.2,1.938-.342-10.946.228-11.174,3.649,6.157,4.219,11.516,7.183,9.577,8.665,9.577,9.121-30.9,9.235-51.992-2.508-38.88-4.447-41.388S122.2,399.874,122.2,399.874Z" transform="translate(-86.873 -229.684)" fill="#2f2e41"/>
  <path id="Path_79" data-name="Path 79" d="M179.894,739.7s.912-2.508,4.1-1.71,5.359-2.052,5.359-2.052,1.71-.228.57,1.938-2.052,3.649-2.052,3.649,6.841,15.62,2.394,19.383a9.534,9.534,0,0,1-9.577,1.482s-5.017-3.535-4.789-12.884c0,0-.228-2.964-2.964-7.753s-4.789-12.086-1.482-13.454a17.909,17.909,0,0,1,4.158-1.419s-1.547,7.077,2.449,9.55Z" transform="translate(-124.516 -383.176)" fill="#3f3d56"/>
  <path id="Path_80" data-name="Path 80" d="M145.96,778.934s-2.736-5.131,1.824-5.7,9.463-.912,9.235,1.482-.8,6.043-.8,6.043l.8,2.622s.228,6.5,1.026,7.3,5.131,7.639-4.1,7.639-11.972-1.026-11.174-3.193,1.026-12.884,1.026-12.884Z" transform="translate(-111.789 -404.742)" fill="#3f3d56"/>
  <path id="Path_81" data-name="Path 81" d="M145.646,342.654s6.385,1.71,9.691,2.394,2.964-1.254,2.964-1.254,4.333.57,4.1.114,1.824-2.85-.57-5.587-1.71-4.789-1.71-4.789h-2.052l-.57-.8h-3.192s-2.394-.912-8.665,0-14.822,1.14-15.506,4.9-4.219,8.437-2.964,10.6,8.437,11.06,9.121,14.822,3.878,4.6,3.763,2.242-3.307-10.565-.571-10.908S146.9,347.1,145.646,342.654Z" transform="translate(-104.406 -197.979)" fill="#2f2e41"/>
  <path id="Path_82" data-name="Path 82" d="M1009.274,86.584a12.194,12.194,0,0,0-10.511,7.349c-2.628,6.353.756,13.816,5.836,18.449s11.606,7.281,17.536,10.762c7.964,4.675,15.121,11.165,19.106,19.5s4.409,18.651-.275,26.61c-4.348,7.387-12.253,11.809-19.793,15.886" transform="translate(-513.222 -82.627)" fill="none" stroke="#3f3d56" stroke-miterlimit="10" stroke-width="1"/>
  <ellipse id="Ellipse_27" data-name="Ellipse 27" cx="9.5" cy="4.5" rx="9.5" ry="4.5" transform="translate(493)" fill="#ff63ce"/>
  <ellipse id="Ellipse_28" data-name="Ellipse 28" cx="9" cy="5" rx="9" ry="5" transform="translate(501 29)" fill="#ff63ce"/>
  <ellipse id="Ellipse_29" data-name="Ellipse 29" cx="9.5" cy="5" rx="9.5" ry="5" transform="translate(484 34)" fill="#ff63ce"/>
  <ellipse id="Ellipse_30" data-name="Ellipse 30" cx="9" cy="4" rx="9" ry="4" transform="translate(511 60)" fill="#ff63ce"/>
  <ellipse id="Ellipse_31" data-name="Ellipse 31" cx="9.5" cy="4" rx="9.5" ry="4" transform="translate(529 60)" fill="#ff63ce"/>
</svg>
