<svg xmlns="http://www.w3.org/2000/svg" width="100vw" height="50%" viewBox="0 0 1920 211.377">
  <g id="wave" transform="translate(666 -823)">
    <path id="wave-1" data-name="wave" d="M0,180.377l22.564-16.725c22.564-16.725,67.691-50.174,112.818-69.669,45.127-19.7,90.255-24.93,135.382-22.317s90.255,14.111,135.382,25.087,90.255,22.474,135.382,25.087,90.255-2.613,135.382-8.362S767.166,102.5,812.293,91.161C857.42,80.029,902.548,63.3,947.675,71.666s90.255,41.812,135.382,39.042c45.127-2.979,90.255-41.655,135.382-47.4s90.255,22.474,112.819,36.219l22.564,13.955V197.1H0Z" transform="translate(-289.582 770.765)" fill="#fff" opacity="0.67"/>
    <path id="wave-2" data-name="wave" d="M0,247.647l32-26.273c32-26.273,96-78.818,160-109.441C256,80.98,320,72.77,384,76.875s128,22.167,192,39.409,128,35.3,192,39.409,128-4.105,192-13.136,128-17.241,192-35.057c64-17.488,128-43.76,192-30.624s128,65.681,192,61.33c64-4.68,128-65.435,192-74.466s128,35.3,160,56.9l32,21.921V273.919H0Z" transform="translate(-666 760.458)" fill="#fff"/>
  </g>
</svg>
